<?xml version="1.0" encoding="utf-8"?>
<!-- Generator: Adobe Illustrator 26.0.1, SVG Export Plug-In . SVG Version: 6.00 Build 0)  -->
<svg version="1.1" id="Layer_1" xmlns="http://www.w3.org/2000/svg" xmlns:xlink="http://www.w3.org/1999/xlink" x="0px" y="0px"
	 viewBox="0 0 1000 1000" style="enable-background:new 0 0 1000 1000;" xml:space="preserve">
<style type="text/css">
	.st0{display:none;fill:#381D3D;}
	.st1{display:none;fill:#F8F2F9;}
	.st2{fill:#CC3333;}
	.st3{fill:#F8F2F9;}
	.st4{fill:none;}
	.st5{font-family:'Chrono';}
	.st6{font-size:200px;}
	.st7{letter-spacing:5;}
</style>
<rect class="st0" width="1000" height="1000"/>
<rect x="134.5" y="854" class="st1" width="726" height="104"/>
<g>
	<path class="st2" d="M232.41,428.15c-23.11-24.52-26.43-53.68-19.42-84.99c1.22-5.45,0.69-8.86-3.11-13.29
		c-12.43-14.48-12.75-31.43-8.81-50.9c8.62,9.15,9.87,21.36,19.56,27.43c2.94-2.81,0.84-5.14,0.11-7.49
		c-13.63-43.7-1.93-78.44,35.52-105.48c5.14-3.71,8.49-7.64,9.27-14.98c2.89-27.39,21.27-45.12,41.14-61.36
		c16.55-13.53,36.08-19.66,57.23-21.08c3.36-0.23,6.9,0.65,9.67-2.7c25.18-30.41,57.71-29.43,91.96-21.58
		c8.81,2.02,17.39,4.64,25.32,8.81c5.88,3.09,10,3.18,15.49-1.58c31.56-27.37,81.43-31.62,119.23-4.68
		c7.93,5.65,15.83,11.35,23.66,17.14c1.88,1.39,3.42,2.76,6.04,3.02c29.09,2.91,45.02,21.07,45.26,52.19
		c24.19-5.07,42.27,7.6,57.84,22.81c17.56,17.15,29.78,38.32,30.96,63.8c0.81,17.46,2.07,35.21-5.67,51.82
		c-1.64,3.52,0.09,5.65,2.11,8.3c14.73,19.3,18.75,41.22,12.72,64.26c-6.71,25.67-17.19,49.53-41.59,63.99
		c-2.62,2.95-5.67,5.32-9.51,6.36c-14.71,4-22.97,14.64-28.79,27.83c-2.88,6.55-5.89,12.87-15.03,9.23
		c-5.39-12.52-5.1-25.75-2-38.35c1.78-7.23,1.62-12.33-3.47-17.35c1.39-9.97-3.58-16.73-11.35-21.93
		c-3.24-2.17-6.93-3.59-10.35-5.48c-19.46-10.76-35.06-24.83-40.07-47.69c-1.84-8.4-6.27-10.38-14.5-8.11
		c-36.52,10.06-66.98-1.99-87.29-33.99c-1.6-2.53-2.5-6.53-6.42-5.78c-4.08,0.78-4.61,4.93-5.43,8.28
		c-2.99,12.27,2.58,25.46,13.78,31.81c3.99,2.27,7.59,4.37,6.96,9.57c-0.67,5.55-4.91,7.4-9.61,8.9
		c-28.34,9.05-62.4-4.81-76.95-31.41c-0.39-0.72-1.03-1.16-2.02-1.5c-3.82,0.39-5.49,3.9-7.63,6.42
		c-13.69,16.03-31.28,23.08-51.94,21.88c-10.73-0.62-18.71,1.75-24.58,11.52c-3.77,6.28-9.21,12.32-15.81,15.39
		c-14.5,6.74-20.1,18.53-21.97,33.21c-2.82,5.53-8.56,4.57-13.25,5.97c-8.49,2.54-13.06,6.65-10.97,17.03
		c2.64,13.08,2.5,26.64,3.56,39.98c0.36,4.51,0.67,9.55-4.02,12.71c-5.41,1.54-6.9-1.9-7.58-6.13
		c-2.59-16.07-14.37-27.32-21.78-40.82c-6.04-10.99-18.36-11.84-32.05-4.88C242.4,426.53,238.74,432.7,232.41,428.15z"/>
	<path class="st3" d="M705.54,464.23c4.98-2.6,8.46-6.05,10.15-11.9c5.92-20.46,19.49-31.18,41.2-30.71
		c3.45,7.65,12.43,9.88,16.25,17.74c9.9,20.4,10.25,40.69,1.2,61.08c-13.64,30.71-35.47,53.9-67.89,63.7
		c-20.04,6.06-30.39,19.41-37.03,36.88c-7.53,19.81-22.43,33.29-36.96,47.32c-12.94,5.22-21.61,15.81-31.46,24.95
		c-19.98,18.56-43,31.62-69.81,37.34c-4.89,1.04-10.01,1.39-15.02,2c-19.44,2.38-37.77,0.02-54.75-11.09
		c-15.29-10.01-31.45-18.68-46.2-29.56c-5.12-3.77-9.96-7.86-13.7-13.09c-12.93-11.06-26.12-21.86-38.74-33.33
		c-11.9-12.08-20.08-26.75-27.74-41.57c-4.7-9.1-11.79-13.43-21.09-14.38c-45.93-4.68-90.57-61.39-90.97-108.23
		c-0.1-11.91,2.52-23.23,9.43-33.25c6.73-5.26,13-11.11,21.63-13.45c13.66-3.71,26.13,1.27,32.24,13.97
		c3.75,7.78,7.69,15.46,13.59,21.69c7.05,7.45,2.43,17.55,6.76,25.45c2.54,0.33,4.43,1.71,5.27,4.05
		c10.51,29.45,30.95,44.77,62.58,45.95c26.05,0.97,52.06,5.27,77.91-1.98c12-3.37,20.48-10,23.19-22.69
		c2.28-6.6,1.14-13.61,3.03-20.51c2.31-8.43,4.1-15.54,12.72-20.15c7.54-4.03,14.73-7.78,23.33-7.82c-9-2.1-16.07,2.83-22.43,7.82
		c-6.6,5.18-9.25,3.93-12.39-3.4c-4.36-10.15-5.56-20.77-7.11-31.44c-1.07-7.29-6.37-10.4-12.51-12.44
		c-34.82-11.52-70.66-16.15-107.24-15.29c-3.06,0.07-6.28,1.07-9.17,2.95c-5.14,3.33-9.96,2.99-13.55-2.64
		c-2.85-14.42,0.76-22.96,12.1-29.51c13.09-7.55,24.16-17.13,30.21-31.47c1.71-4.06,4.01-6.07,9-4.88
		c29.16,6.95,52.03-2.34,68.73-27.19c1.95-2.9,4.31-5.53,6.57-8.21c0.46-0.54,1.31-0.76,3.35-1.87
		c0.14,20.48,9.68,34.58,28.61,40.77c16.57,5.42,33.58,9.28,51.67-1.22c-15.69-3.72-22.24-13.71-24.24-28.34
		c-1.76-12.85,2.8-22.88,10.38-32.25c4.28-5.28,6.73-3.62,8.33,2.33c7.5,27.83,28.43,40.4,54.19,47.56
		c13.82,3.84,26.25-1.04,38.51-6.03c8.13-3.31,11.61-2.49,12.79,7.25c3.58,29.35,22.96,46.14,48.65,56.13
		c11.42,4.44,11.69,14.32,15.3,22.8c0.79,1.86-2,2.96-3.82,3.69c-3.92,2.02-7.37,0.06-10.91-1.26c-22.28-3.58-44.18-7.77-67.3-4.48
		c-18.39,2.62-36.82,3.83-54.66,9.73c-12.13,4.01-19.34,9.39-22.61,23.8c-4.93,21.72-5.76,42.51-0.67,63.86
		c5.62,17.07,20.42,21.16,35.26,22.29c25.02,1.91,50.17,1.6,74.99-3.71c22.62-4.83,37.66-17.38,43.42-40.41
		C699.29,472.73,698.66,466.18,705.54,464.23z"/>
	<path d="M601.64,724c-0.65,1.51-1.3,3.02-1.95,4.54c-15.35,27.74-35.39,50.24-66.89,59.96c-8.81,2.72-17.89,3.43-26.48,0.45
		c-38.3-13.3-71.03-33.9-92.04-70.25c-3.87-6.69-4.49-13.74-6.82-20.56c-3.18-13.11-6.36-26.23-9.54-39.34
		c-0.23-4.31,1.99-4.32,5.04-2.88c20.26,15.15,41.45,28.88,63.3,41.63c11.33,6.6,23.04,10.12,36.43,10.25
		c32.73,0.32,60.54-12.41,86.21-30.88c13.22-9.51,25.46-20.39,38.17-30.63c2.89-2.33,19.62-9.76,5.38,2.08
		c-26.42,15.18-31.42,39.91-30.18,67.49C602.4,718.55,601.87,721.28,601.64,724z"/>
	<path class="st2" d="M407.46,698.14c19.92,44.23,56.24,69.35,100.18,85.08c14.17,5.07,27.69-0.08,40.31-6.82
		c21.39-11.42,37.79-28.34,51.74-47.86c-1.21,8.29-4.02,15.99-9.92,22.02c-16.34,16.69-28.43,38.73-54.58,43.23
		c-3.99,0.69-9.41,2.86-3.02,8.24c4.6,3.88,2.48,6.62-1.42,9.05c-6.26,3.91-12.86,4.77-20.16,3.17
		c-32.01-7.03-54.58-27.58-73.53-52.46c-10.1-13.26-17.98-28.22-26.87-42.41C407.82,712.48,407.69,705.3,407.46,698.14z"/>
	<path d="M402.97,655.91c-1.68,0.96-3.36,1.92-5.04,2.88c-13.5-9.18-24.89-20.6-35.14-33.22c1.79,0.71-1-1.31,0,0
		C372.11,637.86,393.83,647.3,402.97,655.91z"/>
	<path d="M330.25,398.21c35.28-8.28,70.32-4.35,105.19,2.5c12.95,2.54,25.8,5.79,38.01,11.17c6.6,2.9,10.35,6.78,7.41,14.37
		c-5.3,9.14-0.17,18.29,1.3,26.83c2.86,16.55-1.1,32.36-1.78,48.49c-2.75,14.83-13.04,22.63-26.22,27.1
		c-11.89,4.03-24.21,5.49-36.88,4.69c-23.32-1.47-47.05-0.35-69.59-7.33c-24.21-7.5-37.93-24.85-41.05-50.23
		c-0.39-19.19,0.65-38.5-7.06-56.87c-2.6-6.21,2.42-9.84,6.71-13.32C313.3,399.94,322.26,400.69,330.25,398.21z"/>
	<path d="M693.23,402.75c2.45,1.67,4.9,3.35,7.35,5.02c8.72,4.97,12.13,10.1,6.71,21.09c-5.23,10.62-1.65,23.48-1.75,35.36
		c-1.91,36.35-20.65,55.27-57.17,60.73c-20.26,3.03-40.56,2.82-60.7,2.66c-19.1-0.15-38.6-4.21-46.52-26.31
		c-1.35-11.4-3.86-22.68-3.48-34.25c0.09-2.62-0.56-5.76,3.09-6.53c3.27-0.68,4.7,1.81,6.2,4.15c3.73,5.8,3.21,12.62,4.78,18.93
		c1.11,4.47,1.98,9.07,4.27,13.17c5.91,12.06,17.53,13.72,28.76,14.68c26.33,2.24,52.2-0.45,77.15-9.79
		c5.6-2.1,10.48-5.15,14.32-9.79c12.5-15.09,15.64-48.1,6.2-65.47c-5.48-7.09-1.8-15.06-0.76-22.11
		C682.45,399.11,689.01,401.69,693.23,402.75z"/>
	<path d="M551.09,503.4c-11.11-10.85-5.6-25.68-10.06-38.41c-3.69,12.07,2,24.28,0.13,36.32c-6.31-19.45-5.32-39.17-2.22-58.97
		c0.6-3.82,2.45-8.17,1.31-11.42c-4.1-11.69,1.56-16.54,11.58-19.69c45.36-14.26,91.32-19.99,138.42-10.19
		c1.07,0.22,1.99,1.13,2.98,1.72c-1.93,0.1-3.86,0.11-5.77,0.34c-0.69,0.08-1.31,0.7-2.39,1.31c2.75,5.56,10.94,3.4,13.64,9.34
		c-4.74,3.68-10.14-4.28-13.78,0.79c-2.37,3.3,2.53,4.99,3.58,7.69c-1.8,1.43-3.45,4.06-5.8,3.51c-14.66-3.46-31.59,1.4-43.62-11.9
		c-3.35-3.71-7.86-2.2-12.1-1.79c-13.85,1.31-27.72,2.42-41.63,4.61c2.71,4.74,2.28,9.25-3.57,12.22c-0.69,0.35-1.43,0.61-2.13,0.95
		c-29.33,14.16-33.04,22.28-26.71,56.66C554,492.08,558.48,498.54,551.09,503.4z"/>
	<path d="M317.68,551.67c-3.23-8.21-6.36-16.47-9.76-24.62c-1.07-2.57-0.93-7.39-5.27-6.17c-3.64,1.02-2.49,5.14-2.27,8.19
		c0.16,2.26,1.52,4.52,0.02,6.78c-8.97-2.5-11.88-10.81-4.64-18.77c5.95-6.55,4.25-11.61,1.31-17.76
		c-6.6-13.83-15.22-26.27-25.91-37.25c-3.75-3.85-7.24-8.59-13.89-6.06c-6.53,2.48-6.53,7.83-4.05,16.24
		c-8.52-11.91-8.57-23.9-2.14-29.83c7.13-6.58,19.08-5.39,27.21,3.48c11.98,13.07,21.5,28.1,26.96,44.81
		c6.37,19.51,10.47,39.77,15.56,59.7C319.77,550.83,318.72,551.25,317.68,551.67z"/>
	<path d="M371.93,373.03c1.81-5.79,5.16-6.41,7.94-7.32c29.26-9.53,57.5-6.97,84.57,7.68c2.68,1.45,5.39,3.43,7.17,5.84
		c4.59,6.25,5.5,13.25,0.04,19.29c-5.78,6.39-11.47,2.05-16.4-1.84c-9.79-7.73-19.51-15.4-31.05-20.57
		C407.57,368.68,390.62,367.37,371.93,373.03z"/>
	<path d="M708.76,512.67c-6.09,13.84-4.51,29.27-14.14,40.59c5.1-34.16,9.8-68.43,29.26-98.36c5.04-7.76,12.32-12.58,21.53-11.54
		c8.81,0.99,10.89,9.28,13.16,16.28c5.23,16.12,3.59,23.29-6.53,29.74c-1.54-5.02,1.8-9.09,2.07-13.53
		c0.38-6.19-0.4-11.87-6.55-15.05c-6.06-3.13-10.48,0.15-14.4,4.34c-9.44,10.1-16.49,21.64-21.36,34.63
		c-2.2,5.89,1.04,9.49,3.74,13.81c5.51,8.81,4.69,12.86-3.66,19.97C707.31,527.45,715.49,519.83,708.76,512.67z"/>
	<path d="M615.98,370.13c-22.72,1.48-41.5,11.84-58.66,25.94c-5.65,4.64-11.68,10.83-18.98,3.07c-5.77-6.13-3.07-17.96,5.94-22.94
		c27.33-15.11,55.95-20.27,86.11-8.7C626.73,374.64,620.94,370.12,615.98,370.13z"/>
	<path d="M560.91,613.19c-18.83,29.02-57.73,30.8-97.18,6.24C495.68,624.01,527.08,618.75,560.91,613.19z"/>
	<path d="M480.38,501.57c0.46-21.9,2.13-43.83-2.23-65.59c-0.7-3.49,0.26-6.92,2.71-9.73c-1.71,11.85,2.89,22.83,6.68,36.21
		c3.04-3.82,5.65-8.12,9.22-11.36c10.4-9.44,25.58-7.85,34.04,3.1c1.75,2.26,3.35,4.66,1.37,7.31c-1.72,2.3-4.23,1.08-6.42,0.39
		c-2.22-0.71-4.36-1.67-6.6-2.28c-8.84-2.39-16.59,2-24.88,3.65c-12.84,2.56-8.87,12.51-10.56,20.08
		C482.38,489.38,483.29,495.83,480.38,501.57z"/>
	<path class="st2" d="M496.21,661.62c9.99-1.19,18.35-2.29,26.73-3.13c2.2-0.22,5.14-0.42,6.07,2.2c1.27,3.56-2.16,4.45-4.31,5.79
		C513.27,673.6,505.51,672.63,496.21,661.62z"/>
	<path class="st2" d="M536.91,556.74c-1.25,4.31-4.58,5.09-8.23,5.1c-2.98,0.01-5.87-0.95-5.05-4.59c0.87-3.82,4.02-5.61,7.91-5.42
		C534.57,551.99,536.56,553.61,536.91,556.74z"/>
	<path d="M615.98,370.13c4.83-0.73,10.03,0.55,14.41-2.63c5.26,1.07,9.93,3.12,12.85,9.08
		C634.15,374.43,625.06,372.28,615.98,370.13z"/>
	<path class="st2" d="M499.75,556.73c-1.04,3.54-4.1,2.9-6.63,2.93c-2.2,0.03-5.38,0.27-5.53-2.71c-0.18-3.48,3.12-4.01,5.81-4.13
		C496.2,552.68,498.77,553.49,499.75,556.73z"/>
	<path class="st3" d="M393.83,404.71c15.14,2.09,30.91,1.3,44.72,9.6c0.43,1.22,0.15,2.34-0.87,3.02c-2.16,1.45-4.65,1.91-6.56,1.89
		c4.79,2.87,10.59,4.83,16.41,6.72c0.35,0.18,0.68,0.46,1.05,0.51c21.09,2.96,26.04,17,25.49,35.77
		c-0.37,12.47,0.47,24.94-2.72,37.19c-2.73,10.46-9.23,16.85-19.77,19.21c-31.36,7.02-62.69,5.62-93.98-0.46
		c-12.43-2.41-21.01-11.12-27.26-20.79c-13.48-20.86-16.77-44.03-10.63-68.29c1.52-6.01,5.65-9.08,11.66-9.84
		c7.33-0.92,14.69-1.65,21.99-2.81c4.68-0.74,10.76-0.91,6.93-8.69c-0.11-3.22,2.04-3.85,4.55-3.77
		C374.5,404.32,384.2,403.01,393.83,404.71z"/>
	<path d="M447.53,425.93c-10.98-2.8-21.96-5.61-32.94-8.41c8.1-5.54,16.56,3.64,23.96-3.22c2.54,0.26,6.2-0.77,6.69,2.72
		c0.46,3.29-3.61,1.6-5.66,3.5C442.3,422.38,444.91,424.16,447.53,425.93z"/>
	<path d="M393.83,404.71c-7.27-0.03-14.54-0.11-21.8-0.05c-4.15,0.03-8.57-0.74-11.74,3.09c-3.09-1.23-6.17-2.45-12.3-4.88
		C365.37,402.25,379.64,400.97,393.83,404.71z"/>
	<path class="st3" d="M551.09,503.4c-6.55-19.29-6.75-38.96-3.91-58.9c1-6.99,4.21-11.09,11.17-13.14
		c9.05-2.66,17.84-6.24,27.06-9.54c-6.65-7.47-14.14,4.39-20.37-3.93c28.4-12.06,58.07-11.37,86.94-13.04
		c2.06,3.65,0.29,4.46-1.4,5.57c-1.18,0.77-2.02,2.06-4.29,4.47c14.74,3.58,29.04,2.81,42.23,7.35
		c11.61,24.01,6.52,47.22-4.62,69.43c-8.31,16.57-26.23,18.55-41.67,22.33c-22.8,5.58-46.22,6.06-69.48,1.85
		C564.17,514.3,556.33,510.98,551.09,503.4z"/>
</g>
<g>
	<rect x="1.99" y="741.95" class="st4" width="1115.67" height="235.05"/>
	<text transform="matrix(1 0 0 1 40.1342 904.9722)" class="st2 st5 st6 st7">ForgetMeArt</text>
	<rect x="4.34" y="741.95" class="st4" width="1115.67" height="235.05"/>
	<text transform="matrix(1 0 0 1 42.4828 904.9722)" class="st3 st5 st6 st7">ForgetMeArt</text>
</g>
</svg>
